<svg width="24" height="24" viewBox="0 0 24 24" fill="none" xmlns="http://www.w3.org/2000/svg">
<g clip-path="url(#clip0_1_1496)">
<path d="M6.59068 0.991406C7.22349 0.3585 8.08131 0.00292969 8.97662 0.00292969H15.0235C15.9188 0.00292969 16.7766 0.3585 17.4094 0.991406L23.0063 6.59063C23.6391 7.22344 23.9954 8.08125 23.9954 8.97656V15.0234C23.9954 15.9187 23.6391 16.7766 23.0063 17.4094L17.4094 23.0062C16.7766 23.6391 15.9188 23.9953 15.0235 23.9953H8.97662C8.08131 23.9953 7.22349 23.6391 6.59068 23.0062L0.991459 17.4094C0.35874 16.7766 0.00317383 15.9187 0.00317383 15.0234V8.97656C0.00317383 8.08125 0.35874 7.22344 0.991459 6.59063L6.59068 0.991406ZM8.20318 9.75469L10.411 11.9578L8.20318 14.2031C7.76724 14.6438 7.76724 15.3563 8.20318 15.7547C8.64381 16.2328 9.35631 16.2328 9.75474 15.7547L12.0001 13.5891L14.2032 15.7547C14.6438 16.2328 15.3563 16.2328 15.7547 15.7547C16.2329 15.3563 16.2329 14.6438 15.7547 14.2031L13.5891 11.9578L15.7547 9.75469C16.2329 9.35625 16.2329 8.64375 15.7547 8.20312C15.3563 7.76719 14.6438 7.76719 14.2032 8.20312L12.0001 10.4109L9.75474 8.20312C9.35631 7.76719 8.64381 7.76719 8.20318 8.20312C7.76724 8.64375 7.76724 9.35625 8.20318 9.75469Z" fill="#FF3E3E"/>
</g>
<defs>
<clipPath id="clip0_1_1496">
<rect width="24" height="24" fill="white"/>
</clipPath>
</defs>
</svg>
